<svg width="9" height="18" viewBox="0 0 9 18" fill="none" xmlns="http://www.w3.org/2000/svg">
<path fill-rule="evenodd" clip-rule="evenodd" d="M4.5 18C4.36741 18 4.24025 17.9473 4.1465 17.8536C4.05274 17.7598 4.00007 17.6326 4.00007 17.5L4.00007 1.70779L0.854512 4.85458C0.760639 4.94846 0.633319 5.0012 0.500562 5.0012C0.367805 5.0012 0.240485 4.94846 0.146611 4.85458C0.0527379 4.7607 2.1749e-07 4.63337 2.2648e-07 4.50061C2.3547e-07 4.36784 0.052738 4.24051 0.146611 4.14663L4.14605 0.146884C4.19249 0.100324 4.24766 0.0633857 4.3084 0.0381809C4.36913 0.0129761 4.43424 -3.99151e-07 4.5 -3.93403e-07C4.56576 -3.87654e-07 4.63087 0.0129761 4.69161 0.0381809C4.75234 0.0633858 4.80751 0.100324 4.85395 0.146885L8.85339 4.14663C8.94726 4.24051 9 4.36784 9 4.50061C9 4.63337 8.94726 4.7607 8.85339 4.85458C8.75952 4.94846 8.6322 5.00121 8.49944 5.00121C8.36668 5.00121 8.23936 4.94846 8.14549 4.85458L4.99993 1.70779L4.99993 17.5C4.99993 17.6326 4.94726 17.7598 4.8535 17.8536C4.75975 17.9473 4.63259 18 4.5 18Z" fill="#D9D9D9"/>
</svg>
